<svg id="visual" viewBox="0 0 960 540" width="960" height="540" xmlns="http://www.w3.org/2000/svg" xmlns:xlink="http://www.w3.org/1999/xlink" version="1.1"><g stroke-width="1" stroke-linejoin="bevel"><path d="M484 270L482 310L525 284Z" fill="#0c2435" stroke="#0c2435"></path><path d="M482 310L487 320L525 284Z" fill="#246688" stroke="#246688"></path><path d="M487 320L531 316L525 284Z" fill="#246688" stroke="#246688"></path><path d="M531 316L535 312L525 284Z" fill="#19435d" stroke="#19435d"></path><path d="M482 310L485 331L487 320Z" fill="#205a7a" stroke="#205a7a"></path><path d="M487 320L485 331L531 316Z" fill="#081a28" stroke="#081a28"></path><path d="M484 270L438 279L482 310Z" fill="#15384f" stroke="#15384f"></path><path d="M415 344L426 357L485 331Z" fill="#277297" stroke="#277297"></path><path d="M557 230L552 230L525 284Z" fill="#246688" stroke="#246688"></path><path d="M525 284L524 211L484 270Z" fill="#277297" stroke="#277297"></path><path d="M484 270L437 213L438 279Z" fill="#0c2435" stroke="#0c2435"></path><path d="M552 230L524 211L525 284Z" fill="#205a7a" stroke="#205a7a"></path><path d="M605 269L557 230L525 284Z" fill="#15384f" stroke="#15384f"></path><path d="M552 230L555 192L524 211Z" fill="#277297" stroke="#277297"></path><path d="M485 331L550 363L531 316Z" fill="#0c2435" stroke="#0c2435"></path><path d="M531 316L550 363L535 312Z" fill="#205a7a" stroke="#205a7a"></path><path d="M535 312L605 269L525 284Z" fill="#15384f" stroke="#15384f"></path><path d="M426 357L463 380L485 331Z" fill="#205a7a" stroke="#205a7a"></path><path d="M485 331L463 380L550 363Z" fill="#19435d" stroke="#19435d"></path><path d="M415 344L485 331L482 310Z" fill="#297ea6" stroke="#297ea6"></path><path d="M524 211L437 213L484 270Z" fill="#205a7a" stroke="#205a7a"></path><path d="M438 279L415 344L482 310Z" fill="#277297" stroke="#277297"></path><path d="M399 355L415 344L362 274Z" fill="#112e42" stroke="#112e42"></path><path d="M610 273L605 269L535 312Z" fill="#246688" stroke="#246688"></path><path d="M620 347L610 273L535 312Z" fill="#112e42" stroke="#112e42"></path><path d="M601 151L555 192L645 183Z" fill="#00101c" stroke="#00101c"></path><path d="M557 230L555 192L552 230Z" fill="#00101c" stroke="#00101c"></path><path d="M524 211L439 189L437 213Z" fill="#00101c" stroke="#00101c"></path><path d="M555 192L557 230L645 183Z" fill="#246688" stroke="#246688"></path><path d="M456 155L439 189L524 211Z" fill="#1d4e6b" stroke="#1d4e6b"></path><path d="M362 274L415 344L438 279Z" fill="#246688" stroke="#246688"></path><path d="M362 274L438 279L381 218Z" fill="#19435d" stroke="#19435d"></path><path d="M415 344L399 355L426 357Z" fill="#081a28" stroke="#081a28"></path><path d="M443 427L470 424L463 380Z" fill="#297ea6" stroke="#297ea6"></path><path d="M620 347L625 271L610 273Z" fill="#1d4e6b" stroke="#1d4e6b"></path><path d="M610 273L625 271L605 269Z" fill="#0c2435" stroke="#0c2435"></path><path d="M470 424L509 420L463 380Z" fill="#297ea6" stroke="#297ea6"></path><path d="M463 380L509 420L550 363Z" fill="#246688" stroke="#246688"></path><path d="M550 363L620 347L535 312Z" fill="#081a28" stroke="#081a28"></path><path d="M588 403L620 347L550 363Z" fill="#205a7a" stroke="#205a7a"></path><path d="M443 427L463 380L426 357Z" fill="#297ea6" stroke="#297ea6"></path><path d="M381 218L438 279L437 213Z" fill="#112e42" stroke="#112e42"></path><path d="M413 178L381 218L437 213Z" fill="#1d4e6b" stroke="#1d4e6b"></path><path d="M456 155L413 178L439 189Z" fill="#00101c" stroke="#00101c"></path><path d="M439 189L413 178L437 213Z" fill="#297ea6" stroke="#297ea6"></path><path d="M509 420L588 403L550 363Z" fill="#112e42" stroke="#112e42"></path><path d="M528 119L456 155L524 211Z" fill="#1d4e6b" stroke="#1d4e6b"></path><path d="M381 218L359 247L362 274Z" fill="#112e42" stroke="#112e42"></path><path d="M399 355L443 427L426 357Z" fill="#297ea6" stroke="#297ea6"></path><path d="M513 485L554 445L509 420Z" fill="#0c2435" stroke="#0c2435"></path><path d="M374 452L440 438L443 427Z" fill="#277297" stroke="#277297"></path><path d="M443 427L440 438L470 424Z" fill="#112e42" stroke="#112e42"></path><path d="M509 420L554 445L588 403Z" fill="#277297" stroke="#277297"></path><path d="M513 485L509 420L470 424Z" fill="#277297" stroke="#277297"></path><path d="M456 155L399 157L413 178Z" fill="#1d4e6b" stroke="#1d4e6b"></path><path d="M413 178L379 152L381 218Z" fill="#205a7a" stroke="#205a7a"></path><path d="M381 218L302 166L359 247Z" fill="#112e42" stroke="#112e42"></path><path d="M325 336L348 368L399 355Z" fill="#0c2435" stroke="#0c2435"></path><path d="M399 355L355 384L443 427Z" fill="#00101c" stroke="#00101c"></path><path d="M325 336L399 355L362 274Z" fill="#205a7a" stroke="#205a7a"></path><path d="M348 368L355 384L399 355Z" fill="#205a7a" stroke="#205a7a"></path><path d="M645 183L557 230L605 269Z" fill="#081a28" stroke="#081a28"></path><path d="M555 192L528 119L524 211Z" fill="#205a7a" stroke="#205a7a"></path><path d="M538 119L528 119L555 192Z" fill="#081a28" stroke="#081a28"></path><path d="M456 155L433 113L399 157Z" fill="#112e42" stroke="#112e42"></path><path d="M601 151L538 119L555 192Z" fill="#246688" stroke="#246688"></path><path d="M646 412L639 402L627 440Z" fill="#081a28" stroke="#081a28"></path><path d="M588 403L639 402L620 347Z" fill="#112e42" stroke="#112e42"></path><path d="M620 347L680 319L625 271Z" fill="#246688" stroke="#246688"></path><path d="M302 283L362 274L297 266Z" fill="#297ea6" stroke="#297ea6"></path><path d="M302 283L321 302L362 274Z" fill="#297ea6" stroke="#297ea6"></path><path d="M321 302L325 336L362 274Z" fill="#1d4e6b" stroke="#1d4e6b"></path><path d="M348 368L292 381L355 384Z" fill="#297ea6" stroke="#297ea6"></path><path d="M625 271L645 183L605 269Z" fill="#112e42" stroke="#112e42"></path><path d="M682 259L645 183L625 271Z" fill="#205a7a" stroke="#205a7a"></path><path d="M668 396L680 319L620 347Z" fill="#1d4e6b" stroke="#1d4e6b"></path><path d="M433 113L477 65L414 82Z" fill="#19435d" stroke="#19435d"></path><path d="M528 119L444 117L456 155Z" fill="#112e42" stroke="#112e42"></path><path d="M388 140L379 152L399 157Z" fill="#1d4e6b" stroke="#1d4e6b"></path><path d="M399 157L379 152L413 178Z" fill="#081a28" stroke="#081a28"></path><path d="M680 319L682 259L625 271Z" fill="#297ea6" stroke="#297ea6"></path><path d="M433 113L388 140L399 157Z" fill="#1d4e6b" stroke="#1d4e6b"></path><path d="M627 440L639 402L588 403Z" fill="#277297" stroke="#277297"></path><path d="M639 402L668 396L620 347Z" fill="#19435d" stroke="#19435d"></path><path d="M477 65L444 117L528 119Z" fill="#0c2435" stroke="#0c2435"></path><path d="M444 117L433 113L456 155Z" fill="#0c2435" stroke="#0c2435"></path><path d="M321 302L312 328L325 336Z" fill="#246688" stroke="#246688"></path><path d="M325 336L292 381L348 368Z" fill="#081a28" stroke="#081a28"></path><path d="M477 492L470 424L440 438Z" fill="#1d4e6b" stroke="#1d4e6b"></path><path d="M477 492L513 485L470 424Z" fill="#15384f" stroke="#15384f"></path><path d="M554 445L627 440L588 403Z" fill="#00101c" stroke="#00101c"></path><path d="M561 89L540 100L538 119Z" fill="#081a28" stroke="#081a28"></path><path d="M538 119L540 100L528 119Z" fill="#246688" stroke="#246688"></path><path d="M561 89L538 119L601 151Z" fill="#19435d" stroke="#19435d"></path><path d="M626 457L627 440L554 445Z" fill="#15384f" stroke="#15384f"></path><path d="M297 266L362 274L359 247Z" fill="#0c2435" stroke="#0c2435"></path><path d="M321 302L275 299L312 328Z" fill="#081a28" stroke="#081a28"></path><path d="M706 398L668 396L700 448Z" fill="#0c2435" stroke="#0c2435"></path><path d="M646 412L668 396L639 402Z" fill="#00101c" stroke="#00101c"></path><path d="M379 494L477 492L440 438Z" fill="#205a7a" stroke="#205a7a"></path><path d="M289 172L297 266L359 247Z" fill="#205a7a" stroke="#205a7a"></path><path d="M302 283L275 299L321 302Z" fill="#0c2435" stroke="#0c2435"></path><path d="M317 437L374 452L355 384Z" fill="#297ea6" stroke="#297ea6"></path><path d="M355 384L374 452L443 427Z" fill="#205a7a" stroke="#205a7a"></path><path d="M716 234L669 170L645 183Z" fill="#277297" stroke="#277297"></path><path d="M645 183L653 129L601 151Z" fill="#297ea6" stroke="#297ea6"></path><path d="M552 507L626 457L554 445Z" fill="#15384f" stroke="#15384f"></path><path d="M627 440L637 468L646 412Z" fill="#15384f" stroke="#15384f"></path><path d="M644 113L561 89L601 151Z" fill="#205a7a" stroke="#205a7a"></path><path d="M477 65L433 113L444 117Z" fill="#112e42" stroke="#112e42"></path><path d="M703 161L671 157L669 170Z" fill="#15384f" stroke="#15384f"></path><path d="M669 170L671 157L645 183Z" fill="#277297" stroke="#277297"></path><path d="M388 140L355 124L379 152Z" fill="#081a28" stroke="#081a28"></path><path d="M379 152L302 166L381 218Z" fill="#0c2435" stroke="#0c2435"></path><path d="M414 82L355 124L388 140Z" fill="#00101c" stroke="#00101c"></path><path d="M414 82L388 140L433 113Z" fill="#1d4e6b" stroke="#1d4e6b"></path><path d="M551 539L552 507L549 540Z" fill="#081a28" stroke="#081a28"></path><path d="M513 485L552 507L554 445Z" fill="#081a28" stroke="#081a28"></path><path d="M671 157L653 129L645 183Z" fill="#19435d" stroke="#19435d"></path><path d="M735 256L716 234L682 259Z" fill="#00101c" stroke="#00101c"></path><path d="M682 259L716 234L645 183Z" fill="#246688" stroke="#246688"></path><path d="M733 291L682 259L680 319Z" fill="#0c2435" stroke="#0c2435"></path><path d="M626 457L637 468L627 440Z" fill="#0c2435" stroke="#0c2435"></path><path d="M587 540L637 468L626 457Z" fill="#205a7a" stroke="#205a7a"></path><path d="M297 266L275 299L302 283Z" fill="#297ea6" stroke="#297ea6"></path><path d="M312 328L292 381L325 336Z" fill="#205a7a" stroke="#205a7a"></path><path d="M217 270L275 299L297 266Z" fill="#081a28" stroke="#081a28"></path><path d="M477 65L528 119L540 100Z" fill="#297ea6" stroke="#297ea6"></path><path d="M275 299L292 381L312 328Z" fill="#0c2435" stroke="#0c2435"></path><path d="M517 55L477 65L540 100Z" fill="#19435d" stroke="#19435d"></path><path d="M644 98L644 113L685 128Z" fill="#297ea6" stroke="#297ea6"></path><path d="M653 129L644 113L601 151Z" fill="#00101c" stroke="#00101c"></path><path d="M700 448L668 396L646 412Z" fill="#205a7a" stroke="#205a7a"></path><path d="M668 396L706 398L680 319Z" fill="#1d4e6b" stroke="#1d4e6b"></path><path d="M729 343L733 291L680 319Z" fill="#297ea6" stroke="#297ea6"></path><path d="M355 124L302 166L379 152Z" fill="#246688" stroke="#246688"></path><path d="M292 381L317 437L355 384Z" fill="#277297" stroke="#277297"></path><path d="M374 452L379 494L440 438Z" fill="#081a28" stroke="#081a28"></path><path d="M644 98L563 65L561 89Z" fill="#19435d" stroke="#19435d"></path><path d="M561 89L563 65L540 100Z" fill="#112e42" stroke="#112e42"></path><path d="M706 398L729 343L680 319Z" fill="#081a28" stroke="#081a28"></path><path d="M729 215L722 212L716 234Z" fill="#277297" stroke="#277297"></path><path d="M716 234L722 212L669 170Z" fill="#112e42" stroke="#112e42"></path><path d="M685 128L644 113L653 129Z" fill="#277297" stroke="#277297"></path><path d="M363 491L379 494L374 452Z" fill="#00101c" stroke="#00101c"></path><path d="M477 492L483 540L513 485Z" fill="#0c2435" stroke="#0c2435"></path><path d="M563 65L517 55L540 100Z" fill="#246688" stroke="#246688"></path><path d="M733 291L735 256L682 259Z" fill="#00101c" stroke="#00101c"></path><path d="M685 128L653 129L671 157Z" fill="#246688" stroke="#246688"></path><path d="M644 113L644 98L561 89Z" fill="#0c2435" stroke="#0c2435"></path><path d="M722 212L703 161L669 170Z" fill="#297ea6" stroke="#297ea6"></path><path d="M735 256L729 215L716 234Z" fill="#297ea6" stroke="#297ea6"></path><path d="M722 212L729 215L703 161Z" fill="#246688" stroke="#246688"></path><path d="M308 134L289 172L302 166Z" fill="#00101c" stroke="#00101c"></path><path d="M302 166L289 172L359 247Z" fill="#205a7a" stroke="#205a7a"></path><path d="M324 483L363 491L374 452Z" fill="#15384f" stroke="#15384f"></path><path d="M440 540L477 492L379 494Z" fill="#205a7a" stroke="#205a7a"></path><path d="M440 540L467 535L477 492Z" fill="#00101c" stroke="#00101c"></path><path d="M703 161L685 128L671 157Z" fill="#00101c" stroke="#00101c"></path><path d="M355 124L308 134L302 166Z" fill="#00101c" stroke="#00101c"></path><path d="M338 98L308 134L355 124Z" fill="#00101c" stroke="#00101c"></path><path d="M738 362L745 329L729 343Z" fill="#246688" stroke="#246688"></path><path d="M729 343L745 329L733 291Z" fill="#112e42" stroke="#112e42"></path><path d="M733 291L747 257L735 256Z" fill="#081a28" stroke="#081a28"></path><path d="M706 398L738 362L729 343Z" fill="#297ea6" stroke="#297ea6"></path><path d="M758 306L747 257L733 291Z" fill="#081a28" stroke="#081a28"></path><path d="M735 256L747 257L729 215Z" fill="#277297" stroke="#277297"></path><path d="M467 535L483 540L477 492Z" fill="#205a7a" stroke="#205a7a"></path><path d="M552 507L587 540L626 457Z" fill="#1d4e6b" stroke="#1d4e6b"></path><path d="M338 57L338 98L414 82Z" fill="#277297" stroke="#277297"></path><path d="M414 82L338 98L355 124Z" fill="#246688" stroke="#246688"></path><path d="M442 17L414 82L477 65Z" fill="#0c2435" stroke="#0c2435"></path><path d="M241 201L258 217L289 172Z" fill="#205a7a" stroke="#205a7a"></path><path d="M289 172L258 217L297 266Z" fill="#19435d" stroke="#19435d"></path><path d="M549 540L552 507L513 485Z" fill="#0c2435" stroke="#0c2435"></path><path d="M483 540L549 540L513 485Z" fill="#246688" stroke="#246688"></path><path d="M712 455L700 448L691 519Z" fill="#205a7a" stroke="#205a7a"></path><path d="M637 468L700 448L646 412Z" fill="#277297" stroke="#277297"></path><path d="M706 398L770 409L738 362Z" fill="#297ea6" stroke="#297ea6"></path><path d="M467 535L440 540L483 540Z" fill="#00101c" stroke="#00101c"></path><path d="M364 540L440 540L379 494Z" fill="#1d4e6b" stroke="#1d4e6b"></path><path d="M549 540L562 540L551 539Z" fill="#277297" stroke="#277297"></path><path d="M551 539L562 540L552 507Z" fill="#081a28" stroke="#081a28"></path><path d="M819 312L758 306L745 329Z" fill="#15384f" stroke="#15384f"></path><path d="M745 329L758 306L733 291Z" fill="#081a28" stroke="#081a28"></path><path d="M317 437L324 483L374 452Z" fill="#00101c" stroke="#00101c"></path><path d="M363 491L364 540L379 494Z" fill="#112e42" stroke="#112e42"></path><path d="M292 461L324 483L317 437Z" fill="#297ea6" stroke="#297ea6"></path><path d="M562 540L587 540L552 507Z" fill="#19435d" stroke="#19435d"></path><path d="M691 519L700 448L637 468Z" fill="#297ea6" stroke="#297ea6"></path><path d="M700 448L729 442L706 398Z" fill="#297ea6" stroke="#297ea6"></path><path d="M738 362L819 312L745 329Z" fill="#0c2435" stroke="#0c2435"></path><path d="M251 428L317 437L292 381Z" fill="#19435d" stroke="#19435d"></path><path d="M251 428L292 461L317 437Z" fill="#297ea6" stroke="#297ea6"></path><path d="M226 332L292 381L275 299Z" fill="#081a28" stroke="#081a28"></path><path d="M644 98L577 30L563 65Z" fill="#277297" stroke="#277297"></path><path d="M563 65L577 30L517 55Z" fill="#1d4e6b" stroke="#1d4e6b"></path><path d="M488 0L442 17L477 65Z" fill="#0c2435" stroke="#0c2435"></path><path d="M601 0L577 30L606 0Z" fill="#0c2435" stroke="#0c2435"></path><path d="M217 270L227 308L275 299Z" fill="#00101c" stroke="#00101c"></path><path d="M225 193L289 172L236 117Z" fill="#112e42" stroke="#112e42"></path><path d="M225 193L241 201L289 172Z" fill="#081a28" stroke="#081a28"></path><path d="M258 217L217 270L297 266Z" fill="#277297" stroke="#277297"></path><path d="M712 455L729 442L700 448Z" fill="#205a7a" stroke="#205a7a"></path><path d="M226 332L245 394L292 381Z" fill="#112e42" stroke="#112e42"></path><path d="M227 308L226 332L275 299Z" fill="#1d4e6b" stroke="#1d4e6b"></path><path d="M488 0L477 65L517 55Z" fill="#1d4e6b" stroke="#1d4e6b"></path><path d="M196 250L217 270L258 217Z" fill="#297ea6" stroke="#297ea6"></path><path d="M152 342L198 362L226 332Z" fill="#19435d" stroke="#19435d"></path><path d="M341 540L363 491L324 483Z" fill="#15384f" stroke="#15384f"></path><path d="M341 540L364 540L363 491Z" fill="#15384f" stroke="#15384f"></path><path d="M245 394L251 428L292 381Z" fill="#15384f" stroke="#15384f"></path><path d="M275 540L341 540L324 483Z" fill="#081a28" stroke="#081a28"></path><path d="M227 388L251 428L245 394Z" fill="#246688" stroke="#246688"></path><path d="M397 0L338 57L414 82Z" fill="#0c2435" stroke="#0c2435"></path><path d="M338 98L281 97L308 134Z" fill="#205a7a" stroke="#205a7a"></path><path d="M226 332L227 388L245 394Z" fill="#19435d" stroke="#19435d"></path><path d="M198 362L227 388L226 332Z" fill="#0c2435" stroke="#0c2435"></path><path d="M529 0L488 0L517 55Z" fill="#246688" stroke="#246688"></path><path d="M236 117L289 172L308 134Z" fill="#00101c" stroke="#00101c"></path><path d="M241 201L196 250L258 217Z" fill="#15384f" stroke="#15384f"></path><path d="M319 53L281 97L338 98Z" fill="#15384f" stroke="#15384f"></path><path d="M577 30L529 0L517 55Z" fill="#277297" stroke="#277297"></path><path d="M319 53L280 96L281 97Z" fill="#112e42" stroke="#112e42"></path><path d="M281 97L236 117L308 134Z" fill="#112e42" stroke="#112e42"></path><path d="M703 161L746 129L685 128Z" fill="#246688" stroke="#246688"></path><path d="M685 128L693 43L644 98Z" fill="#081a28" stroke="#081a28"></path><path d="M577 30L601 0L529 0Z" fill="#00101c" stroke="#00101c"></path><path d="M729 215L746 129L703 161Z" fill="#00101c" stroke="#00101c"></path><path d="M789 148L746 129L729 215Z" fill="#15384f" stroke="#15384f"></path><path d="M796 221L729 215L747 257Z" fill="#205a7a" stroke="#205a7a"></path><path d="M729 442L770 409L706 398Z" fill="#1d4e6b" stroke="#1d4e6b"></path><path d="M819 312L796 221L747 257Z" fill="#205a7a" stroke="#205a7a"></path><path d="M275 540L324 483L292 461Z" fill="#277297" stroke="#277297"></path><path d="M712 455L806 487L729 442Z" fill="#205a7a" stroke="#205a7a"></path><path d="M806 487L781 408L770 409Z" fill="#297ea6" stroke="#297ea6"></path><path d="M587 540L691 519L637 468Z" fill="#00101c" stroke="#00101c"></path><path d="M329 0L319 53L338 57Z" fill="#112e42" stroke="#112e42"></path><path d="M338 57L319 53L338 98Z" fill="#081a28" stroke="#081a28"></path><path d="M397 0L414 82L442 17Z" fill="#1d4e6b" stroke="#1d4e6b"></path><path d="M488 0L422 0L442 17Z" fill="#246688" stroke="#246688"></path><path d="M819 312L747 257L758 306Z" fill="#00101c" stroke="#00101c"></path><path d="M829 431L781 408L806 487Z" fill="#246688" stroke="#246688"></path><path d="M770 409L781 408L738 362Z" fill="#0c2435" stroke="#0c2435"></path><path d="M194 216L196 250L241 201Z" fill="#112e42" stroke="#112e42"></path><path d="M217 270L183 267L227 308Z" fill="#00101c" stroke="#00101c"></path><path d="M606 0L577 30L655 6Z" fill="#00101c" stroke="#00101c"></path><path d="M422 0L397 0L442 17Z" fill="#205a7a" stroke="#205a7a"></path><path d="M655 6L577 30L644 98Z" fill="#00101c" stroke="#00101c"></path><path d="M152 342L226 332L227 308Z" fill="#00101c" stroke="#00101c"></path><path d="M227 388L196 416L251 428Z" fill="#205a7a" stroke="#205a7a"></path><path d="M280 96L256 97L281 97Z" fill="#246688" stroke="#246688"></path><path d="M225 193L194 216L241 201Z" fill="#297ea6" stroke="#297ea6"></path><path d="M266 5L256 97L280 96Z" fill="#112e42" stroke="#112e42"></path><path d="M587 540L689 540L691 519Z" fill="#0c2435" stroke="#0c2435"></path><path d="M691 519L722 540L712 455Z" fill="#246688" stroke="#246688"></path><path d="M739 81L693 43L685 128Z" fill="#112e42" stroke="#112e42"></path><path d="M187 176L194 216L225 193Z" fill="#19435d" stroke="#19435d"></path><path d="M196 250L183 267L217 270Z" fill="#19435d" stroke="#19435d"></path><path d="M256 97L236 117L281 97Z" fill="#19435d" stroke="#19435d"></path><path d="M160 257L183 267L196 250Z" fill="#15384f" stroke="#15384f"></path><path d="M784 96L739 81L746 129Z" fill="#277297" stroke="#277297"></path><path d="M746 129L739 81L685 128Z" fill="#277297" stroke="#277297"></path><path d="M781 408L819 312L738 362Z" fill="#081a28" stroke="#081a28"></path><path d="M825 163L789 148L796 221Z" fill="#277297" stroke="#277297"></path><path d="M796 221L789 148L729 215Z" fill="#277297" stroke="#277297"></path><path d="M693 43L655 6L644 98Z" fill="#1d4e6b" stroke="#1d4e6b"></path><path d="M679 0L655 6L693 43Z" fill="#297ea6" stroke="#297ea6"></path><path d="M198 362L196 416L227 388Z" fill="#0c2435" stroke="#0c2435"></path><path d="M256 540L275 540L292 461Z" fill="#297ea6" stroke="#297ea6"></path><path d="M179 419L196 416L198 362Z" fill="#297ea6" stroke="#297ea6"></path><path d="M840 381L830 315L819 312Z" fill="#00101c" stroke="#00101c"></path><path d="M819 312L845 254L796 221Z" fill="#00101c" stroke="#00101c"></path><path d="M219 72L236 117L256 97Z" fill="#0c2435" stroke="#0c2435"></path><path d="M219 72L215 118L236 117Z" fill="#1d4e6b" stroke="#1d4e6b"></path><path d="M236 117L215 118L225 193Z" fill="#00101c" stroke="#00101c"></path><path d="M194 216L160 257L196 250Z" fill="#15384f" stroke="#15384f"></path><path d="M219 72L256 97L266 5Z" fill="#19435d" stroke="#19435d"></path><path d="M215 118L187 176L225 193Z" fill="#0c2435" stroke="#0c2435"></path><path d="M689 540L722 540L691 519Z" fill="#297ea6" stroke="#297ea6"></path><path d="M781 408L840 381L819 312Z" fill="#081a28" stroke="#081a28"></path><path d="M201 470L292 461L251 428Z" fill="#00101c" stroke="#00101c"></path><path d="M397 0L329 0L338 57Z" fill="#081a28" stroke="#081a28"></path><path d="M187 176L160 257L194 216Z" fill="#081a28" stroke="#081a28"></path><path d="M183 267L152 342L227 308Z" fill="#277297" stroke="#277297"></path><path d="M699 0L679 0L693 43Z" fill="#19435d" stroke="#19435d"></path><path d="M655 6L679 0L606 0Z" fill="#15384f" stroke="#15384f"></path><path d="M699 0L693 43L719 13Z" fill="#081a28" stroke="#081a28"></path><path d="M329 0L317 0L319 53Z" fill="#1d4e6b" stroke="#1d4e6b"></path><path d="M836 108L784 96L789 148Z" fill="#1d4e6b" stroke="#1d4e6b"></path><path d="M789 148L784 96L746 129Z" fill="#205a7a" stroke="#205a7a"></path><path d="M153 354L179 419L198 362Z" fill="#205a7a" stroke="#205a7a"></path><path d="M196 416L201 470L251 428Z" fill="#15384f" stroke="#15384f"></path><path d="M855 285L845 254L819 312Z" fill="#00101c" stroke="#00101c"></path><path d="M179 419L201 470L196 416Z" fill="#00101c" stroke="#00101c"></path><path d="M240 537L256 540L292 461Z" fill="#297ea6" stroke="#297ea6"></path><path d="M868 232L825 163L796 221Z" fill="#277297" stroke="#277297"></path><path d="M160 257L152 342L183 267Z" fill="#00101c" stroke="#00101c"></path><path d="M846 403L840 381L781 408Z" fill="#246688" stroke="#246688"></path><path d="M830 315L855 285L819 312Z" fill="#0c2435" stroke="#0c2435"></path><path d="M152 342L153 354L198 362Z" fill="#205a7a" stroke="#205a7a"></path><path d="M719 13L693 43L739 81Z" fill="#0c2435" stroke="#0c2435"></path><path d="M763 0L719 13L739 81Z" fill="#1d4e6b" stroke="#1d4e6b"></path><path d="M900 344L855 285L830 315Z" fill="#297ea6" stroke="#297ea6"></path><path d="M845 254L868 232L796 221Z" fill="#297ea6" stroke="#297ea6"></path><path d="M215 118L142 137L187 176Z" fill="#15384f" stroke="#15384f"></path><path d="M111 265L114 312L160 257Z" fill="#112e42" stroke="#112e42"></path><path d="M266 5L280 96L319 53Z" fill="#19435d" stroke="#19435d"></path><path d="M806 487L770 409L729 442Z" fill="#246688" stroke="#246688"></path><path d="M200 495L240 537L292 461Z" fill="#246688" stroke="#246688"></path><path d="M865 261L856 253L845 254Z" fill="#205a7a" stroke="#205a7a"></path><path d="M317 0L286 0L319 53Z" fill="#1d4e6b" stroke="#1d4e6b"></path><path d="M802 58L788 71L836 108Z" fill="#112e42" stroke="#112e42"></path><path d="M784 96L788 71L739 81Z" fill="#277297" stroke="#277297"></path><path d="M115 454L200 495L201 470Z" fill="#297ea6" stroke="#297ea6"></path><path d="M201 470L200 495L292 461Z" fill="#1d4e6b" stroke="#1d4e6b"></path><path d="M180 540L200 495L151 540Z" fill="#277297" stroke="#277297"></path><path d="M805 502L806 487L712 455Z" fill="#297ea6" stroke="#297ea6"></path><path d="M854 429L846 403L829 431Z" fill="#1d4e6b" stroke="#1d4e6b"></path><path d="M829 431L846 403L781 408Z" fill="#297ea6" stroke="#297ea6"></path><path d="M840 381L900 344L830 315Z" fill="#246688" stroke="#246688"></path><path d="M905 297L865 261L855 285Z" fill="#19435d" stroke="#19435d"></path><path d="M855 285L865 261L845 254Z" fill="#0c2435" stroke="#0c2435"></path><path d="M856 253L868 232L845 254Z" fill="#205a7a" stroke="#205a7a"></path><path d="M836 108L788 71L784 96Z" fill="#0c2435" stroke="#0c2435"></path><path d="M286 0L266 5L319 53Z" fill="#297ea6" stroke="#297ea6"></path><path d="M722 540L805 502L712 455Z" fill="#277297" stroke="#277297"></path><path d="M875 481L854 429L829 431Z" fill="#112e42" stroke="#112e42"></path><path d="M865 261L868 232L856 253Z" fill="#00101c" stroke="#00101c"></path><path d="M722 540L782 540L805 502Z" fill="#081a28" stroke="#081a28"></path><path d="M875 481L829 431L806 487Z" fill="#246688" stroke="#246688"></path><path d="M846 403L900 344L840 381Z" fill="#00101c" stroke="#00101c"></path><path d="M865 261L912 269L868 232Z" fill="#1d4e6b" stroke="#1d4e6b"></path><path d="M875 481L806 487L805 502Z" fill="#15384f" stroke="#15384f"></path><path d="M836 108L789 148L825 163Z" fill="#19435d" stroke="#19435d"></path><path d="M788 71L763 0L739 81Z" fill="#1d4e6b" stroke="#1d4e6b"></path><path d="M719 13L763 0L699 0Z" fill="#246688" stroke="#246688"></path><path d="M889 137L836 108L825 163Z" fill="#0c2435" stroke="#0c2435"></path><path d="M152 342L102 380L153 354Z" fill="#112e42" stroke="#112e42"></path><path d="M153 354L102 380L179 419Z" fill="#0c2435" stroke="#0c2435"></path><path d="M160 257L114 312L152 342Z" fill="#205a7a" stroke="#205a7a"></path><path d="M72 207L160 257L187 176Z" fill="#205a7a" stroke="#205a7a"></path><path d="M159 89L215 118L219 72Z" fill="#112e42" stroke="#112e42"></path><path d="M159 89L142 137L215 118Z" fill="#246688" stroke="#246688"></path><path d="M72 207L111 265L160 257Z" fill="#297ea6" stroke="#297ea6"></path><path d="M821 0L763 0L802 58Z" fill="#1d4e6b" stroke="#1d4e6b"></path><path d="M802 58L763 0L788 71Z" fill="#15384f" stroke="#15384f"></path><path d="M782 540L804 540L805 502Z" fill="#0c2435" stroke="#0c2435"></path><path d="M111 265L106 316L114 312Z" fill="#1d4e6b" stroke="#1d4e6b"></path><path d="M114 312L106 316L152 342Z" fill="#112e42" stroke="#112e42"></path><path d="M155 47L159 89L219 72Z" fill="#246688" stroke="#246688"></path><path d="M904 441L846 403L854 429Z" fill="#00101c" stroke="#00101c"></path><path d="M904 441L900 344L846 403Z" fill="#1d4e6b" stroke="#1d4e6b"></path><path d="M895 151L889 137L825 163Z" fill="#1d4e6b" stroke="#1d4e6b"></path><path d="M900 344L905 297L855 285Z" fill="#0c2435" stroke="#0c2435"></path><path d="M115 454L201 470L179 419Z" fill="#1d4e6b" stroke="#1d4e6b"></path><path d="M200 495L180 540L240 537Z" fill="#081a28" stroke="#081a28"></path><path d="M240 537L180 540L256 540Z" fill="#00101c" stroke="#00101c"></path><path d="M106 316L102 380L152 342Z" fill="#1d4e6b" stroke="#1d4e6b"></path><path d="M960 291L912 269L905 297Z" fill="#0c2435" stroke="#0c2435"></path><path d="M905 297L912 269L865 261Z" fill="#277297" stroke="#277297"></path><path d="M66 275L86 330L106 316Z" fill="#246688" stroke="#246688"></path><path d="M106 316L86 330L102 380Z" fill="#297ea6" stroke="#297ea6"></path><path d="M66 275L106 316L111 265Z" fill="#112e42" stroke="#112e42"></path><path d="M102 380L115 454L179 419Z" fill="#112e42" stroke="#112e42"></path><path d="M91 454L115 454L102 380Z" fill="#15384f" stroke="#15384f"></path><path d="M895 151L825 163L868 232Z" fill="#15384f" stroke="#15384f"></path><path d="M836 108L843 29L802 58Z" fill="#205a7a" stroke="#205a7a"></path><path d="M960 185L895 151L868 232Z" fill="#1d4e6b" stroke="#1d4e6b"></path><path d="M72 207L187 176L142 137Z" fill="#15384f" stroke="#15384f"></path><path d="M72 207L81 255L111 265Z" fill="#1d4e6b" stroke="#1d4e6b"></path><path d="M842 540L875 481L805 502Z" fill="#0c2435" stroke="#0c2435"></path><path d="M167 0L155 47L219 72Z" fill="#0c2435" stroke="#0c2435"></path><path d="M159 89L110 104L142 137Z" fill="#15384f" stroke="#15384f"></path><path d="M804 540L842 540L805 502Z" fill="#277297" stroke="#277297"></path><path d="M115 454L151 540L200 495Z" fill="#1d4e6b" stroke="#1d4e6b"></path><path d="M955 446L904 441L875 481Z" fill="#15384f" stroke="#15384f"></path><path d="M875 481L904 441L854 429Z" fill="#205a7a" stroke="#205a7a"></path><path d="M900 344L958 318L905 297Z" fill="#1d4e6b" stroke="#1d4e6b"></path><path d="M903 86L843 29L836 108Z" fill="#081a28" stroke="#081a28"></path><path d="M903 86L836 108L889 137Z" fill="#00101c" stroke="#00101c"></path><path d="M155 47L110 104L159 89Z" fill="#0c2435" stroke="#0c2435"></path><path d="M843 29L821 0L802 58Z" fill="#00101c" stroke="#00101c"></path><path d="M99 118L91 147L142 137Z" fill="#1d4e6b" stroke="#1d4e6b"></path><path d="M66 213L66 275L81 255Z" fill="#081a28" stroke="#081a28"></path><path d="M81 255L66 275L111 265Z" fill="#112e42" stroke="#112e42"></path><path d="M59 451L91 454L42 397Z" fill="#081a28" stroke="#081a28"></path><path d="M91 147L72 207L142 137Z" fill="#1d4e6b" stroke="#1d4e6b"></path><path d="M110 104L99 118L142 137Z" fill="#1d4e6b" stroke="#1d4e6b"></path><path d="M0 191L66 213L0 187Z" fill="#205a7a" stroke="#205a7a"></path><path d="M42 397L102 380L86 330Z" fill="#1d4e6b" stroke="#1d4e6b"></path><path d="M115 454L93 484L151 540Z" fill="#00101c" stroke="#00101c"></path><path d="M72 207L66 213L81 255Z" fill="#277297" stroke="#277297"></path><path d="M39 132L72 207L91 147Z" fill="#0c2435" stroke="#0c2435"></path><path d="M110 104L83 97L99 118Z" fill="#0c2435" stroke="#0c2435"></path><path d="M155 47L83 97L110 104Z" fill="#112e42" stroke="#112e42"></path><path d="M266 5L167 0L219 72Z" fill="#00101c" stroke="#00101c"></path><path d="M286 0L167 0L266 5Z" fill="#205a7a" stroke="#205a7a"></path><path d="M89 497L93 484L59 451Z" fill="#297ea6" stroke="#297ea6"></path><path d="M91 454L93 484L115 454Z" fill="#19435d" stroke="#19435d"></path><path d="M952 143L889 137L895 151Z" fill="#112e42" stroke="#112e42"></path><path d="M941 86L903 86L889 137Z" fill="#246688" stroke="#246688"></path><path d="M843 29L855 0L821 0Z" fill="#19435d" stroke="#19435d"></path><path d="M960 336L958 318L900 344Z" fill="#00101c" stroke="#00101c"></path><path d="M912 269L960 238L868 232Z" fill="#1d4e6b" stroke="#1d4e6b"></path><path d="M910 0L855 0L843 29Z" fill="#205a7a" stroke="#205a7a"></path><path d="M9 285L42 329L66 275Z" fill="#297ea6" stroke="#297ea6"></path><path d="M66 275L42 329L86 330Z" fill="#15384f" stroke="#15384f"></path><path d="M59 451L93 484L91 454Z" fill="#0c2435" stroke="#0c2435"></path><path d="M93 484L89 497L151 540Z" fill="#246688" stroke="#246688"></path><path d="M60 45L83 97L155 47Z" fill="#112e42" stroke="#112e42"></path><path d="M99 118L39 132L91 147Z" fill="#19435d" stroke="#19435d"></path><path d="M0 241L9 285L66 275Z" fill="#19435d" stroke="#19435d"></path><path d="M958 318L960 291L905 297Z" fill="#277297" stroke="#277297"></path><path d="M167 0L141 0L155 47Z" fill="#277297" stroke="#277297"></path><path d="M960 372L960 336L900 344Z" fill="#205a7a" stroke="#205a7a"></path><path d="M958 318L960 336L960 291Z" fill="#0c2435" stroke="#0c2435"></path><path d="M960 291L960 238L912 269Z" fill="#297ea6" stroke="#297ea6"></path><path d="M141 0L138 0L155 47Z" fill="#297ea6" stroke="#297ea6"></path><path d="M960 374L900 344L904 441Z" fill="#297ea6" stroke="#297ea6"></path><path d="M960 374L960 372L900 344Z" fill="#0c2435" stroke="#0c2435"></path><path d="M960 440L960 374L904 441Z" fill="#277297" stroke="#277297"></path><path d="M42 397L91 454L102 380Z" fill="#205a7a" stroke="#205a7a"></path><path d="M42 329L42 397L86 330Z" fill="#15384f" stroke="#15384f"></path><path d="M960 238L960 185L868 232Z" fill="#246688" stroke="#246688"></path><path d="M903 86L910 0L843 29Z" fill="#19435d" stroke="#19435d"></path><path d="M960 185L952 143L895 151Z" fill="#1d4e6b" stroke="#1d4e6b"></path><path d="M23 540L89 540L89 497Z" fill="#0c2435" stroke="#0c2435"></path><path d="M89 497L89 540L151 540Z" fill="#15384f" stroke="#15384f"></path><path d="M931 540L955 446L875 481Z" fill="#246688" stroke="#246688"></path><path d="M955 446L960 440L904 441Z" fill="#15384f" stroke="#15384f"></path><path d="M957 444L960 440L955 446Z" fill="#00101c" stroke="#00101c"></path><path d="M941 86L931 71L903 86Z" fill="#205a7a" stroke="#205a7a"></path><path d="M952 143L941 86L889 137Z" fill="#1d4e6b" stroke="#1d4e6b"></path><path d="M0 91L39 132L83 97Z" fill="#15384f" stroke="#15384f"></path><path d="M83 97L39 132L99 118Z" fill="#277297" stroke="#277297"></path><path d="M42 329L0 364L42 397Z" fill="#112e42" stroke="#112e42"></path><path d="M0 241L66 275L66 213Z" fill="#205a7a" stroke="#205a7a"></path><path d="M960 185L960 108L952 143Z" fill="#0c2435" stroke="#0c2435"></path><path d="M952 143L960 108L941 86Z" fill="#0c2435" stroke="#0c2435"></path><path d="M960 35L910 0L931 71Z" fill="#246688" stroke="#246688"></path><path d="M842 540L931 540L875 481Z" fill="#246688" stroke="#246688"></path><path d="M955 446L960 540L957 444Z" fill="#112e42" stroke="#112e42"></path><path d="M957 444L960 540L960 440Z" fill="#246688" stroke="#246688"></path><path d="M0 191L0 241L66 213Z" fill="#19435d" stroke="#19435d"></path><path d="M931 71L910 0L903 86Z" fill="#1d4e6b" stroke="#1d4e6b"></path><path d="M960 66L931 71L941 86Z" fill="#15384f" stroke="#15384f"></path><path d="M0 241L0 348L9 285Z" fill="#297ea6" stroke="#297ea6"></path><path d="M9 285L0 348L42 329Z" fill="#205a7a" stroke="#205a7a"></path><path d="M42 397L3 416L59 451Z" fill="#277297" stroke="#277297"></path><path d="M0 511L23 540L89 497Z" fill="#081a28" stroke="#081a28"></path><path d="M60 39L60 45L155 47Z" fill="#081a28" stroke="#081a28"></path><path d="M0 187L66 213L72 207Z" fill="#112e42" stroke="#112e42"></path><path d="M0 348L0 361L42 329Z" fill="#112e42" stroke="#112e42"></path><path d="M0 361L0 364L42 329Z" fill="#19435d" stroke="#19435d"></path><path d="M804 540L940 541L842 540Z" fill="#19435d" stroke="#19435d"></path><path d="M842 540L940 541L931 540Z" fill="#00101c" stroke="#00101c"></path><path d="M931 540L940 541L955 446Z" fill="#19435d" stroke="#19435d"></path><path d="M782 540L940 541L804 540Z" fill="#081a28" stroke="#081a28"></path><path d="M722 540L940 541L782 540Z" fill="#246688" stroke="#246688"></path><path d="M689 540L940 541L722 540Z" fill="#277297" stroke="#277297"></path><path d="M587 540L940 541L689 540Z" fill="#15384f" stroke="#15384f"></path><path d="M562 540L940 541L587 540Z" fill="#297ea6" stroke="#297ea6"></path><path d="M549 540L940 541L562 540Z" fill="#277297" stroke="#277297"></path><path d="M483 540L940 541L549 540Z" fill="#19435d" stroke="#19435d"></path><path d="M440 540L940 541L483 540Z" fill="#1d4e6b" stroke="#1d4e6b"></path><path d="M364 540L940 541L440 540Z" fill="#081a28" stroke="#081a28"></path><path d="M341 540L940 541L364 540Z" fill="#15384f" stroke="#15384f"></path><path d="M275 540L940 541L341 540Z" fill="#205a7a" stroke="#205a7a"></path><path d="M256 540L940 541L275 540Z" fill="#297ea6" stroke="#297ea6"></path><path d="M180 540L940 541L256 540Z" fill="#00101c" stroke="#00101c"></path><path d="M151 540L940 541L180 540Z" fill="#19435d" stroke="#19435d"></path><path d="M89 540L940 541L151 540Z" fill="#19435d" stroke="#19435d"></path><path d="M138 0L60 39L155 47Z" fill="#246688" stroke="#246688"></path><path d="M0 91L12 143L39 132Z" fill="#081a28" stroke="#081a28"></path><path d="M0 187L72 207L39 132Z" fill="#246688" stroke="#246688"></path><path d="M0 147L12 143L0 91Z" fill="#081a28" stroke="#081a28"></path><path d="M12 143L0 187L39 132Z" fill="#297ea6" stroke="#297ea6"></path><path d="M960 108L960 66L941 86Z" fill="#1d4e6b" stroke="#1d4e6b"></path><path d="M0 364L3 416L42 397Z" fill="#246688" stroke="#246688"></path><path d="M0 91L83 97L60 45Z" fill="#1d4e6b" stroke="#1d4e6b"></path><path d="M12 143L0 147L0 187Z" fill="#112e42" stroke="#112e42"></path><path d="M940 541L960 540L955 446Z" fill="#19435d" stroke="#19435d"></path><path d="M940 541L960 541L960 540Z" fill="#205a7a" stroke="#205a7a"></path><path d="M3 416L0 449L59 451Z" fill="#0c2435" stroke="#0c2435"></path><path d="M0 364L0 449L3 416Z" fill="#081a28" stroke="#081a28"></path><path d="M960 66L960 35L931 71Z" fill="#246688" stroke="#246688"></path><path d="M0 511L89 497L59 451Z" fill="#15384f" stroke="#15384f"></path><path d="M89 540L23 540L940 541Z" fill="#1d4e6b" stroke="#1d4e6b"></path><path d="M0 26L0 91L60 45Z" fill="#19435d" stroke="#19435d"></path><path d="M960 35L960 0L910 0Z" fill="#112e42" stroke="#112e42"></path><path d="M0 449L0 511L59 451Z" fill="#205a7a" stroke="#205a7a"></path><path d="M138 0L33 0L60 39Z" fill="#00101c" stroke="#00101c"></path><path d="M60 39L0 26L60 45Z" fill="#205a7a" stroke="#205a7a"></path><path d="M0 511L0 540L23 540Z" fill="#00101c" stroke="#00101c"></path><path d="M23 540L0 540L940 541Z" fill="#15384f" stroke="#15384f"></path><path d="M33 0L0 26L60 39Z" fill="#297ea6" stroke="#297ea6"></path><path d="M33 0L0 0L0 26Z" fill="#1d4e6b" stroke="#1d4e6b"></path></g></svg>